<?xml version="1.0" encoding="UTF-8" standalone="no"?>
<!DOCTYPE svg PUBLIC "-//W3C//DTD SVG 1.1//EN"
 "http://www.w3.org/Graphics/SVG/1.1/DTD/svg11.dtd">
<!-- Generated by graphviz version 2.43.0 (0)
 -->
<!-- Title: 3_1.sql Pages: 1 -->
<svg width="600pt" height="521pt"
 viewBox="0.00 0.00 600.23 521.00" xmlns="http://www.w3.org/2000/svg" xmlns:xlink="http://www.w3.org/1999/xlink">
<g id="graph0" class="graph" transform="scale(1 1) rotate(0) translate(4 517)">
<title>3_1.sql</title>
<polygon fill="white" stroke="transparent" points="-4,4 -4,-517 596.23,-517 596.23,4 -4,4"/>
<g id="clust1" class="cluster">
<title>clusterc_custkey1</title>
<polygon fill="none" stroke="black" points="191.39,-166 191.39,-241 518.39,-241 518.39,-166 191.39,-166"/>
<text text-anchor="middle" x="354.89" y="-225.8" font-family="Times,serif" font-size="14.00">eq join</text>
</g>
<g id="clust2" class="cluster">
<title>clustero_orderkey1</title>
<polygon fill="none" stroke="black" points="129.39,-274 129.39,-349 480.39,-349 480.39,-274 129.39,-274"/>
<text text-anchor="middle" x="304.89" y="-333.8" font-family="Times,serif" font-size="14.00">eq join filterWithCannotJoin: 0.1995</text>
</g>
<!-- Pkc_custkey1 -->
<g id="node1" class="node">
<title>Pkc_custkey1</title>
<ellipse fill="#ffffcc" stroke="#ffffcc" cx="272.39" cy="-192" rx="73.39" ry="18"/>
<text text-anchor="middle" x="272.39" y="-188.3" font-family="Times,serif" font-size="14.00">Pkc_custkey1</text>
</g>
<!-- Fkc_custkey1 -->
<g id="node2" class="node">
<title>Fkc_custkey1</title>
<ellipse fill="#ffcccc" stroke="#ffcccc" cx="437.39" cy="-192" rx="73.39" ry="18"/>
<text text-anchor="middle" x="437.39" y="-188.3" font-family="Times,serif" font-size="14.00">Fkc_custkey1</text>
</g>
<!-- Pko_orderkey1 -->
<g id="node3" class="node">
<title>Pko_orderkey1</title>
<ellipse fill="#ffcccc" stroke="#ffcccc" cx="393.39" cy="-300" rx="79.09" ry="18"/>
<text text-anchor="middle" x="393.39" y="-296.3" font-family="Times,serif" font-size="14.00">Pko_orderkey1</text>
</g>
<!-- Fkc_custkey1&#45;&gt;Pko_orderkey1 -->
<g id="edge9" class="edge">
<title>Fkc_custkey1&#45;&gt;Pko_orderkey1</title>
<path fill="none" stroke="black" d="M430.32,-210.03C423.3,-226.95 412.43,-253.14 404.3,-272.72"/>
<polygon fill="black" stroke="black" points="401.05,-271.43 400.44,-282.01 407.51,-274.12 401.05,-271.43"/>
<text text-anchor="middle" x="438.39" y="-252.8" font-family="Times,serif" font-size="14.00">0.1996</text>
</g>
<!-- Fko_orderkey1 -->
<g id="node4" class="node">
<title>Fko_orderkey1</title>
<ellipse fill="#ccffff" stroke="#ccffff" cx="216.39" cy="-300" rx="79.09" ry="18"/>
<text text-anchor="middle" x="216.39" y="-296.3" font-family="Times,serif" font-size="14.00">Fko_orderkey1</text>
</g>
<!-- GroupKey:public.lineitem.l_orderkey -->
<g id="node9" class="node">
<title>GroupKey:public.lineitem.l_orderkey</title>
<ellipse fill="#ccffff" stroke="#ccffff" cx="216.39" cy="-408" rx="180.87" ry="18"/>
<text text-anchor="middle" x="216.39" y="-404.3" font-family="Times,serif" font-size="14.00">GroupKey:public.lineitem.l_orderkey</text>
</g>
<!-- Fko_orderkey1&#45;&gt;GroupKey:public.lineitem.l_orderkey -->
<g id="edge5" class="edge">
<title>Fko_orderkey1&#45;&gt;GroupKey:public.lineitem.l_orderkey</title>
<path fill="none" stroke="black" d="M216.39,-318.03C216.39,-334.62 216.39,-360.12 216.39,-379.57"/>
<polygon fill="black" stroke="black" points="212.89,-379.66 216.39,-389.66 219.89,-379.66 212.89,-379.66"/>
<text text-anchor="middle" x="241.39" y="-360.8" font-family="Times,serif" font-size="14.00">0.0093</text>
</g>
<!-- c_mktsegment = &#39;34&#39; -->
<g id="node5" class="node">
<title>c_mktsegment = &#39;34&#39;</title>
<ellipse fill="#ffffcc" stroke="#ffffcc" cx="272.39" cy="-105" rx="108.58" ry="18"/>
<text text-anchor="middle" x="272.39" y="-101.3" font-family="Times,serif" font-size="14.00">c_mktsegment = &#39;34&#39;</text>
</g>
<!-- c_mktsegment = &#39;34&#39;&#45;&gt;Pkc_custkey1 -->
<g id="edge2" class="edge">
<title>c_mktsegment = &#39;34&#39;&#45;&gt;Pkc_custkey1</title>
<path fill="none" stroke="black" d="M272.39,-123.2C272.39,-134.84 272.39,-150.45 272.39,-163.76"/>
<polygon fill="black" stroke="black" points="268.89,-163.82 272.39,-173.82 275.89,-163.82 268.89,-163.82"/>
<text text-anchor="middle" x="297.39" y="-144.8" font-family="Times,serif" font-size="14.00">0.1998</text>
</g>
<!-- public.customer -->
<g id="node6" class="node">
<title>public.customer</title>
<polygon fill="#ffffcc" stroke="#ffffcc" points="337.89,-36 206.89,-36 206.89,0 337.89,0 337.89,-36"/>
<text text-anchor="middle" x="272.39" y="-14.3" font-family="Times,serif" font-size="14.00">public.customer</text>
</g>
<!-- public.customer&#45;&gt;c_mktsegment = &#39;34&#39; -->
<g id="edge1" class="edge">
<title>public.customer&#45;&gt;c_mktsegment = &#39;34&#39;</title>
<path fill="none" stroke="black" d="M272.39,-36.2C272.39,-47.84 272.39,-63.45 272.39,-76.76"/>
<polygon fill="black" stroke="black" points="268.89,-76.82 272.39,-86.82 275.89,-76.82 268.89,-76.82"/>
<text text-anchor="middle" x="283.89" y="-57.8" font-family="Times,serif" font-size="14.00">1.0</text>
</g>
<!-- l_shipdate &gt; &#39;36&#39; -->
<g id="node7" class="node">
<title>l_shipdate &gt; &#39;36&#39;</title>
<ellipse fill="#ccffff" stroke="#ccffff" cx="88.39" cy="-192" rx="88.28" ry="18"/>
<text text-anchor="middle" x="88.39" y="-188.3" font-family="Times,serif" font-size="14.00">l_shipdate &gt; &#39;36&#39;</text>
</g>
<!-- l_shipdate &gt; &#39;36&#39;&#45;&gt;Fko_orderkey1 -->
<g id="edge4" class="edge">
<title>l_shipdate &gt; &#39;36&#39;&#45;&gt;Fko_orderkey1</title>
<path fill="none" stroke="black" d="M108.39,-209.56C130,-227.45 164.57,-256.08 188.76,-276.12"/>
<polygon fill="black" stroke="black" points="186.6,-278.87 196.53,-282.55 191.06,-273.48 186.6,-278.87"/>
<text text-anchor="middle" x="195.39" y="-252.8" font-family="Times,serif" font-size="14.00">0.5423</text>
</g>
<!-- public.lineitem -->
<g id="node8" class="node">
<title>public.lineitem</title>
<polygon fill="#ccffff" stroke="#ccffff" points="145.89,-123 22.89,-123 22.89,-87 145.89,-87 145.89,-123"/>
<text text-anchor="middle" x="84.39" y="-101.3" font-family="Times,serif" font-size="14.00">public.lineitem</text>
</g>
<!-- public.lineitem&#45;&gt;l_shipdate &gt; &#39;36&#39; -->
<g id="edge3" class="edge">
<title>public.lineitem&#45;&gt;l_shipdate &gt; &#39;36&#39;</title>
<path fill="none" stroke="black" d="M85.2,-123.2C85.75,-134.84 86.48,-150.45 87.11,-163.76"/>
<polygon fill="black" stroke="black" points="83.62,-164 87.58,-173.82 90.61,-163.67 83.62,-164"/>
<text text-anchor="middle" x="98.89" y="-144.8" font-family="Times,serif" font-size="14.00">1.0</text>
</g>
<!-- RESULT -->
<g id="node10" class="node">
<title>RESULT</title>
<ellipse fill="#ccffff" stroke="#ccffff" cx="216.39" cy="-495" rx="50.09" ry="18"/>
<text text-anchor="middle" x="216.39" y="-491.3" font-family="Times,serif" font-size="14.00">RESULT</text>
</g>
<!-- GroupKey:public.lineitem.l_orderkey&#45;&gt;RESULT -->
<g id="edge6" class="edge">
<title>GroupKey:public.lineitem.l_orderkey&#45;&gt;RESULT</title>
<path fill="none" stroke="black" d="M216.39,-426.2C216.39,-437.84 216.39,-453.45 216.39,-466.76"/>
<polygon fill="black" stroke="black" points="212.89,-466.82 216.39,-476.82 219.89,-466.82 212.89,-466.82"/>
<text text-anchor="middle" x="241.39" y="-447.8" font-family="Times,serif" font-size="14.00">0.3777</text>
</g>
<!-- o_orderdate &lt; &#39;35&#39; -->
<g id="node11" class="node">
<title>o_orderdate &lt; &#39;35&#39;</title>
<ellipse fill="#ffcccc" stroke="#ffcccc" cx="495.39" cy="-105" rx="96.68" ry="18"/>
<text text-anchor="middle" x="495.39" y="-101.3" font-family="Times,serif" font-size="14.00">o_orderdate &lt; &#39;35&#39;</text>
</g>
<!-- o_orderdate &lt; &#39;35&#39;&#45;&gt;Fkc_custkey1 -->
<g id="edge8" class="edge">
<title>o_orderdate &lt; &#39;35&#39;&#45;&gt;Fkc_custkey1</title>
<path fill="none" stroke="black" d="M483.65,-123.2C475.35,-135.38 464.06,-151.91 454.72,-165.6"/>
<polygon fill="black" stroke="black" points="451.66,-163.88 448.91,-174.11 457.44,-167.83 451.66,-163.88"/>
<text text-anchor="middle" x="494.39" y="-144.8" font-family="Times,serif" font-size="14.00">0.4827</text>
</g>
<!-- public.orders -->
<g id="node12" class="node">
<title>public.orders</title>
<polygon fill="#ffcccc" stroke="#ffcccc" points="550.89,-36 439.89,-36 439.89,0 550.89,0 550.89,-36"/>
<text text-anchor="middle" x="495.39" y="-14.3" font-family="Times,serif" font-size="14.00">public.orders</text>
</g>
<!-- public.orders&#45;&gt;o_orderdate &lt; &#39;35&#39; -->
<g id="edge7" class="edge">
<title>public.orders&#45;&gt;o_orderdate &lt; &#39;35&#39;</title>
<path fill="none" stroke="black" d="M495.39,-36.2C495.39,-47.84 495.39,-63.45 495.39,-76.76"/>
<polygon fill="black" stroke="black" points="491.89,-76.82 495.39,-86.82 498.89,-76.82 491.89,-76.82"/>
<text text-anchor="middle" x="506.89" y="-57.8" font-family="Times,serif" font-size="14.00">1.0</text>
</g>
</g>
</svg>
